<?xml version="1.0" encoding="utf-8"?>
<!-- Generator: Adobe Illustrator 16.0.0, SVG Export Plug-In . SVG Version: 6.00 Build 0)  -->
<!DOCTYPE svg PUBLIC "-//W3C//DTD SVG 1.1//EN" "http://www.w3.org/Graphics/SVG/1.1/DTD/svg11.dtd">
<svg version="1.1" id="Layer_1" xmlns="http://www.w3.org/2000/svg" xmlns:xlink="http://www.w3.org/1999/xlink" x="0px" y="0px"
	 width="400px" height="400px" viewBox="0 0 400 400" enable-background="new 0 0 400 400" xml:space="preserve">
<g id="Layer_1_1_">
	<circle fill="#44607B" cx="199.914" cy="199.914" r="191.914"/>
</g>
<g>
	<path fill="#314558" d="M173.942,284.926c1.277-1.287,1.993-3.027,1.993-4.832l-0.117-91.062h12.688
		c2.77-0.005,5.253-1.837,6.308-4.397c1.045-2.559,0.447-5.496-1.52-7.443l-30.407-30.109c-3.545-3.516-9.276-3.506-12.809,0.033
		l-30.254,30.258c-1.957,1.956-2.542,4.899-1.475,7.452c1.054,2.552,3.558,4.215,6.319,4.207h12.692l0.123,91.152
		c0.013,3.771,3.072,6.817,6.847,6.812l24.785-0.062C170.928,286.932,172.668,286.206,173.942,284.926z"/>
	<path fill="#314558" d="M210.232,151.261l-0.117,91.151l-12.698,0.008c-2.762-0.008-5.258,1.654-6.316,4.205
		c-1.063,2.555-0.481,5.497,1.473,7.451l30.255,30.258c3.53,3.535,9.262,3.548,12.808,0.029l30.405-30.106
		c1.974-1.946,2.56-4.884,1.517-7.438c-1.045-2.559-3.529-4.393-6.308-4.405h-12.685l0.115-91.055c0-1.811-0.713-3.552-1.99-4.833
		c-1.274-1.279-3.016-2.008-4.823-2.011l-24.783-0.059C213.307,144.441,210.24,147.489,210.232,151.261z"/>
</g>
<g>
	<path fill="#FFFFFF" d="M177.594,283.203c1.277-1.287,1.993-3.027,1.993-4.832l-0.117-91.062h12.688
		c2.769-0.005,5.252-1.837,6.307-4.397c1.045-2.559,0.447-5.496-1.52-7.443l-30.407-30.109c-3.545-3.516-9.277-3.506-12.809,0.033
		l-30.254,30.258c-1.957,1.956-2.542,4.899-1.475,7.452c1.054,2.552,3.558,4.215,6.319,4.207h12.692l0.123,91.153
		c0.013,3.771,3.072,6.816,6.847,6.812l24.785-0.062C174.579,285.209,176.319,284.482,177.594,283.203z"/>
	<path fill="#FFFFFF" d="M213.884,149.538l-0.116,91.151l-12.699,0.008c-2.761-0.008-5.257,1.654-6.315,4.205
		c-1.063,2.555-0.481,5.496,1.473,7.451l30.254,30.258c3.531,3.535,9.263,3.548,12.808,0.029l30.405-30.106
		c1.974-1.947,2.56-4.884,1.517-7.438c-1.045-2.559-3.528-4.393-6.308-4.406h-12.684l0.115-91.055c0-1.811-0.713-3.552-1.99-4.833
		c-1.275-1.279-3.016-2.008-4.824-2.011l-24.783-0.059C216.958,142.719,213.893,145.767,213.884,149.538z"/>
</g>
<text transform="matrix(1 0 0 1 177.0513 122.334)" fill="#314558" font-family="'OpenSans'" font-size="60">R</text>
<text transform="matrix(1 0 0 1 94.0918 323.668)" fill="#926F2A" font-family="'OpenSans'" font-size="24">SAS   SPSS   STATA</text>
<text transform="matrix(1 0 0 1 178.0513 121.334)" fill="#FFFFFF" font-family="'OpenSans'" font-size="60">R</text>
<text transform="matrix(1 0 0 1 95.0918 322.668)" fill="#FFFFFF" font-family="'OpenSans'" font-size="24">SAS   SPSS   STATA</text>
</svg>
