<?xml version="1.0" encoding="utf-8"?>
<!-- Generator: Adobe Illustrator 16.0.0, SVG Export Plug-In . SVG Version: 6.00 Build 0)  -->
<!DOCTYPE svg PUBLIC "-//W3C//DTD SVG 1.1//EN" "http://www.w3.org/Graphics/SVG/1.1/DTD/svg11.dtd">
<svg version="1.1" id="Layer_1" xmlns="http://www.w3.org/2000/svg" xmlns:xlink="http://www.w3.org/1999/xlink" x="0px" y="0px"
	 width="400px" height="400px" viewBox="0 0 400 400" enable-background="new 0 0 400 400" xml:space="preserve">
<g display="none">
	<g display="inline">
		<g>
			<defs>
				<circle id="SVGID_1_" cx="200.995" cy="200.147" r="191.914"/>
			</defs>
			<clipPath id="SVGID_2_">
				<use xlink:href="#SVGID_1_"  overflow="visible"/>
			</clipPath>
			
				<linearGradient id="SVGID_3_" gradientUnits="userSpaceOnUse" x1="114.9658" y1="400.4727" x2="115.9889" y2="400.4727" gradientTransform="matrix(234.3737 172.1996 172.1996 -234.3737 -95808.8359 74238.8438)">
				<stop  offset="0" style="stop-color:#E2F1EA"/>
				<stop  offset="0.9706" style="stop-color:#92C1BB"/>
				<stop  offset="1" style="stop-color:#ABDBD1"/>
			</linearGradient>
			<polygon clip-path="url(#SVGID_2_)" fill="url(#SVGID_3_)" points="129.827,-134.893 559.934,181.116 240.566,615.794 
				-189.54,299.784 			"/>
		</g>
	</g>
</g>
<circle fill="#44607B" cx="200.995" cy="200.147" r="191.914"/>
<g>
	<g>
		<g>
			<defs>
				<rect id="SVGID_4_" x="98.745" y="138.846" width="204.5" height="122.602"/>
			</defs>
			<clipPath id="SVGID_5_">
				<use xlink:href="#SVGID_4_"  overflow="visible"/>
			</clipPath>
			<path clip-path="url(#SVGID_5_)" fill="none" stroke="#FFFFFF" stroke-width="8" stroke-miterlimit="10" d="M105.376,258.473
				c0,0,46.964,5.436,67.195-62.232c20.227-67.458,41.167,0.543,41.167,0.543"/>
		</g>
	</g>
	<g>
		<g>
			<defs>
				<rect id="SVGID_6_" x="98.745" y="138.846" width="204.5" height="122.602"/>
			</defs>
			<clipPath id="SVGID_7_">
				<use xlink:href="#SVGID_6_"  overflow="visible"/>
			</clipPath>
			<path clip-path="url(#SVGID_7_)" fill="none" stroke="#FFFFFF" stroke-width="8" stroke-miterlimit="10" d="M298.863,259.037
				c0,0-62.896,4.888-85.176-62.768c-22.271-67.445-41.151,0.567-41.151,0.567"/>
		</g>
	</g>
	<g>
		<g>
			<defs>
				<rect id="SVGID_8_" x="98.745" y="138.846" width="204.5" height="122.602"/>
			</defs>
			<clipPath id="SVGID_9_">
				<use xlink:href="#SVGID_8_"  overflow="visible"/>
			</clipPath>
			
				<line clip-path="url(#SVGID_9_)" fill="none" stroke="#FED600" stroke-width="8" stroke-miterlimit="10" x1="225.363" y1="154.215" x2="225.363" y2="260.562"/>
		</g>
	</g>
	<g>
		<g>
			<defs>
				<rect id="SVGID_10_" x="98.745" y="138.846" width="204.5" height="122.602"/>
			</defs>
			<clipPath id="SVGID_11_">
				<use xlink:href="#SVGID_10_"  overflow="visible"/>
			</clipPath>
			
				<line clip-path="url(#SVGID_11_)" fill="none" stroke="#FFFFFF" stroke-width="8" stroke-miterlimit="10" x1="192.457" y1="154.215" x2="192.457" y2="260.562"/>
		</g>
	</g>
	<g>
		<g>
			<defs>
				<rect id="SVGID_12_" x="98.745" y="138.846" width="204.5" height="122.602"/>
			</defs>
			<clipPath id="SVGID_13_">
				<use xlink:href="#SVGID_12_"  overflow="visible"/>
			</clipPath>
			<path clip-path="url(#SVGID_13_)" fill="none" stroke="#FED600" stroke-width="8" stroke-miterlimit="10" d="M99.628,258.473
				c2.526,0.273,76.918,9.053,102.146-61.465c24.205-67.458,46.965,0.543,46.965,0.543"/>
		</g>
	</g>
	<g>
		<g>
			<defs>
				<rect id="SVGID_14_" x="98.745" y="138.846" width="204.5" height="122.602"/>
			</defs>
			<clipPath id="SVGID_15_">
				<use xlink:href="#SVGID_14_"  overflow="visible"/>
			</clipPath>
			<path clip-path="url(#SVGID_15_)" fill="none" stroke="#FED600" stroke-width="8" stroke-miterlimit="10" d="M302.832,259.23
				c0,0-27.494,5.461-54.156-62.194c-26.65-67.444-46.943,0.567-46.943,0.567"/>
		</g>
	</g>
	<g>
		<g>
			<defs>
				<rect id="SVGID_16_" x="98.745" y="138.846" width="204.5" height="122.602"/>
			</defs>
			<clipPath id="SVGID_17_">
				<use xlink:href="#SVGID_16_"  overflow="visible"/>
			</clipPath>
			
				<line clip-path="url(#SVGID_17_)" fill="none" stroke="#FFFFFF" stroke-width="5" stroke-miterlimit="10" x1="302.918" y1="260.033" x2="99.101" y2="260.033"/>
		</g>
	</g>
	<g>
		<g>
			<defs>
				<rect id="SVGID_18_" x="98.745" y="138.846" width="204.5" height="122.602"/>
			</defs>
			<clipPath id="SVGID_19_">
				<use xlink:href="#SVGID_18_"  overflow="visible"/>
			</clipPath>
			
				<line clip-path="url(#SVGID_19_)" fill="none" stroke="#FFFFFF" stroke-width="5" stroke-miterlimit="10" x1="100.064" y1="260.996" x2="100.064" y2="138.846"/>
		</g>
	</g>
</g>
</svg>
