<?xml version="1.0" encoding="utf-8"?>
<!-- Generator: Adobe Illustrator 16.0.0, SVG Export Plug-In . SVG Version: 6.00 Build 0)  -->
<!DOCTYPE svg PUBLIC "-//W3C//DTD SVG 1.1//EN" "http://www.w3.org/Graphics/SVG/1.1/DTD/svg11.dtd">
<svg version="1.1" id="Layer_1" xmlns="http://www.w3.org/2000/svg" xmlns:xlink="http://www.w3.org/1999/xlink" x="0px" y="0px"
	 width="400px" height="400px" viewBox="0 0 400 400" enable-background="new 0 0 400 400" xml:space="preserve">
<g id="Layer_1_1_">
	<circle fill="#DFAB25" stroke="#C7992C" stroke-width="14" stroke-miterlimit="10" cx="199.914" cy="199.914" r="191.914"/>
</g>
<g id="Layer_3">
	<g>
		<path fill="#C7992C" d="M185.262,200.641v-69.521c0-6.848-5.553-12.399-12.403-12.399h-69.522
			c-6.848,0-12.396,5.551-12.396,12.399v69.514c0,6.848,5.548,12.399,12.396,12.399h69.515
			C179.709,213.038,185.262,207.486,185.262,200.641z M118.756,200.102c-5.125,0-9.298-4.162-9.298-9.296
			c0-5.126,4.172-9.301,9.298-9.301c5.135,0,9.301,4.171,9.301,9.301C128.057,195.939,123.894,200.102,118.756,200.102z
			 M118.756,175.304c-5.125,0-9.298-4.172-9.298-9.301c0-5.139,4.172-9.301,9.298-9.301c5.135,0,9.301,4.166,9.301,9.301
			C128.057,171.138,123.894,175.304,118.756,175.304z M118.756,150.502c-5.125,0-9.298-4.166-9.298-9.301
			c0-5.128,4.172-9.301,9.298-9.301c5.135,0,9.301,4.172,9.301,9.301C128.057,146.336,123.894,150.502,118.756,150.502z
			 M155.96,200.102c-5.129,0-9.301-4.162-9.301-9.296c0-5.126,4.172-9.301,9.301-9.301c5.139,0,9.298,4.171,9.298,9.301
			C165.258,195.939,161.099,200.102,155.96,200.102z M155.96,175.304c-5.129,0-9.301-4.172-9.301-9.301
			c0-5.139,4.172-9.301,9.301-9.301c5.139,0,9.298,4.166,9.298,9.301C165.258,171.138,161.099,175.304,155.96,175.304z
			 M155.96,150.502c-5.129,0-9.301-4.166-9.301-9.301c0-5.128,4.172-9.301,9.301-9.301c5.139,0,9.298,4.172,9.298,9.301
			C165.258,146.336,161.099,150.502,155.96,150.502z"/>
		<path fill="#C7992C" d="M296.562,218.419l-49.332-48.987c-4.853-4.821-12.703-4.792-17.526,0.064l-48.988,49.33
			c-4.823,4.849-4.798,12.701,0.061,17.531l49.331,48.982c4.852,4.83,12.703,4.805,17.527-0.054l48.993-49.33
			C301.452,231.098,301.424,223.241,296.562,218.419z M235.73,189.696c3.617-3.64,9.516-3.661,13.156-0.048
			c3.643,3.619,3.656,9.514,0.047,13.152c-3.621,3.646-9.51,3.664-13.154,0.048C232.145,199.232,232.118,193.34,235.73,189.696z
			 M213.98,237.996c-3.617,3.645-9.504,3.667-13.149,0.047c-3.638-3.611-3.667-9.51-0.048-13.154
			c3.611-3.636,9.515-3.662,13.148-0.046C217.578,228.466,217.594,234.357,213.98,237.996z M218.255,207.291
			c3.622-3.641,9.517-3.655,13.152-0.045c3.641,3.615,3.663,9.511,0.048,13.15c-3.613,3.644-9.502,3.668-13.152,0.052
			C214.663,216.836,214.646,210.932,218.255,207.291z M240.374,264.212c-3.616,3.642-9.504,3.663-13.151,0.048
			c-3.636-3.615-3.66-9.508-0.049-13.156c3.613-3.635,9.52-3.656,13.156-0.047C243.977,254.676,243.99,260.574,240.374,264.212z
			 M257.852,246.617c-3.615,3.636-9.508,3.667-13.154,0.044c-3.637-3.612-3.657-9.511-0.045-13.152
			c3.619-3.645,9.511-3.659,13.152-0.048C261.452,237.077,261.473,242.973,257.852,246.617z M275.328,229.02
			c-3.615,3.643-9.508,3.664-13.152,0.045c-3.641-3.616-3.667-9.512-0.047-13.152c3.615-3.639,9.516-3.664,13.152-0.049
			C278.93,219.48,278.943,225.378,275.328,229.02z"/>
	</g>
</g>
<g id="Capa_1">
	<g>
		<path fill="#FFFFFF" d="M191.467,194.764v-69.521c0-6.848-5.552-12.399-12.402-12.399h-69.521
			c-6.848,0-12.396,5.552-12.396,12.399v69.515c0,6.848,5.548,12.398,12.396,12.398h69.515
			C185.915,207.163,191.467,201.611,191.467,194.764z M124.962,194.227c-5.125,0-9.298-4.163-9.298-9.297
			c0-5.126,4.172-9.301,9.298-9.301c5.135,0,9.301,4.171,9.301,9.301C134.263,190.064,130.1,194.227,124.962,194.227z
			 M124.962,169.429c-5.125,0-9.298-4.172-9.298-9.301c0-5.138,4.172-9.301,9.298-9.301c5.135,0,9.301,4.166,9.301,9.301
			C134.263,165.263,130.1,169.429,124.962,169.429z M124.962,144.626c-5.125,0-9.298-4.166-9.298-9.301
			c0-5.129,4.172-9.301,9.298-9.301c5.135,0,9.301,4.172,9.301,9.301C134.263,140.46,130.1,144.626,124.962,144.626z
			 M162.166,194.227c-5.128,0-9.301-4.163-9.301-9.297c0-5.126,4.172-9.301,9.301-9.301c5.139,0,9.298,4.171,9.298,9.301
			C171.464,190.064,167.305,194.227,162.166,194.227z M162.166,169.429c-5.128,0-9.301-4.172-9.301-9.301
			c0-5.138,4.172-9.301,9.301-9.301c5.139,0,9.298,4.166,9.298,9.301C171.464,165.263,167.305,169.429,162.166,169.429z
			 M162.166,144.626c-5.128,0-9.301-4.166-9.301-9.301c0-5.129,4.172-9.301,9.301-9.301c5.139,0,9.298,4.172,9.298,9.301
			C171.464,140.46,167.305,144.626,162.166,144.626z"/>
		<path fill="#FFFFFF" d="M302.769,212.543l-49.331-48.987c-4.852-4.821-12.703-4.792-17.526,0.064l-48.987,49.33
			c-4.823,4.849-4.798,12.7,0.061,17.53l49.33,48.983c4.854,4.829,12.705,4.806,17.528-0.055l48.993-49.329
			C307.659,225.223,307.631,217.366,302.769,212.543z M241.938,183.82c3.617-3.639,9.516-3.661,13.156-0.047
			c3.643,3.619,3.657,9.513,0.047,13.152c-3.621,3.644-9.51,3.664-13.154,0.048C238.352,193.357,238.325,187.465,241.938,183.82z
			 M220.188,232.12c-3.617,3.646-9.504,3.667-13.149,0.048c-3.638-3.613-3.667-9.511-0.047-13.154
			c3.61-3.636,9.515-3.662,13.147-0.046C223.784,222.591,223.8,228.482,220.188,232.12z M224.461,201.415
			c3.623-3.639,9.518-3.655,13.152-0.044c3.642,3.615,3.664,9.51,0.048,13.15c-3.612,3.643-9.502,3.668-13.152,0.052
			C220.87,210.96,220.852,205.057,224.461,201.415z M246.581,258.336c-3.616,3.643-9.504,3.664-13.153,0.048
			c-3.634-3.616-3.66-9.507-0.047-13.155c3.612-3.635,9.518-3.656,13.155-0.047C250.182,248.8,250.195,254.698,246.581,258.336z
			 M264.059,240.741c-3.615,3.636-9.509,3.667-13.156,0.045c-3.635-3.613-3.656-9.511-0.043-13.152
			c3.619-3.645,9.51-3.661,13.151-0.048C267.658,231.202,267.678,237.098,264.059,240.741z M281.535,223.145
			c-3.616,3.642-9.508,3.664-13.152,0.043c-3.642-3.615-3.667-9.51-0.048-13.151c3.616-3.638,9.515-3.664,13.151-0.048
			C285.136,213.604,285.15,219.502,281.535,223.145z"/>
	</g>
</g>
</svg>
