<?xml version="1.0" encoding="utf-8"?>
<!-- Generator: Adobe Illustrator 16.0.0, SVG Export Plug-In . SVG Version: 6.00 Build 0)  -->
<!DOCTYPE svg PUBLIC "-//W3C//DTD SVG 1.1//EN" "http://www.w3.org/Graphics/SVG/1.1/DTD/svg11.dtd">
<svg version="1.1" id="Layer_1" xmlns="http://www.w3.org/2000/svg" xmlns:xlink="http://www.w3.org/1999/xlink" x="0px" y="0px"
	 width="400px" height="400px" viewBox="0 0 400 400" enable-background="new 0 0 400 400" xml:space="preserve">
<g id="Layer_1_2_">
	<g id="Layer_1_1_">
		<circle fill="#44607B" cx="199.914" cy="199.914" r="191.914"/>
	</g>
</g>
<g id="Icons">
	<path id="MobileMe" fill="#314559" d="M287,234.527c0,20.535-16.527,37.184-36.906,37.184H135.9c-20.379,0-36.9-16.646-36.9-37.184
		c0-18.547,13.474-33.912,31.102-36.723c-0.223-1.302-0.347-2.641-0.347-4.02c0-13.012,10.469-23.558,23.387-23.558
		c5.761,0,11.041,2.099,15.113,5.591c7.261-16.484,16.569-31.529,42.683-31.529c31.67,0,46.682,24.609,46.682,50.578
		c0,1.086-0.046,2.162-0.119,3.227C274.332,201.55,287,216.547,287,234.527z"/>
	<path id="MobileMe_1_" fill="#FFFFFF" d="M294,226.527c0,20.535-16.527,37.184-36.906,37.184H142.9
		c-20.379,0-36.9-16.646-36.9-37.184c0-18.547,13.474-33.912,31.102-36.723c-0.223-1.302-0.347-2.641-0.347-4.02
		c0-13.012,10.469-23.558,23.387-23.558c5.761,0,11.041,2.099,15.113,5.591c7.261-16.484,16.569-31.529,42.683-31.529
		c31.67,0,46.682,24.609,46.682,50.578c0,1.086-0.046,2.162-0.119,3.227C281.332,193.55,294,208.547,294,226.527z"/>
</g>
</svg>
