<?xml version="1.0" encoding="utf-8"?>
<!-- Generator: Adobe Illustrator 16.0.0, SVG Export Plug-In . SVG Version: 6.00 Build 0)  -->
<!DOCTYPE svg PUBLIC "-//W3C//DTD SVG 1.1//EN" "http://www.w3.org/Graphics/SVG/1.1/DTD/svg11.dtd">
<svg version="1.1" id="Layer_1" xmlns="http://www.w3.org/2000/svg" xmlns:xlink="http://www.w3.org/1999/xlink" x="0px" y="0px"
	 width="400px" height="400px" viewBox="0 0 400 400" enable-background="new 0 0 400 400" xml:space="preserve">
<g id="Layer_1_1_">
	<circle fill="#955BA5" stroke="#8C4E9F" stroke-width="14" stroke-miterlimit="10" cx="199.914" cy="199.914" r="191.914"/>
</g>
<path fill="#8C4E9F" d="M186.992,124.5h-59.087c-11.265,0-20.404,9.139-20.404,20.404v59.088h79.492V124.5z M165.995,168.562
	h-13.771v13.837h-8.832v-13.837h-13.765v-8.76h13.765v-13.765h8.832v13.765h13.771V168.562z M274.5,144.904
	c0-11.265-9.139-20.404-20.404-20.404h-59.088v79.492H274.5V144.904z M250.896,169.192h-33.539v-9.948h33.539V169.192z
	 M107.5,271.096c0,11.266,9.139,20.404,20.404,20.404h59.087v-79.492H107.5V271.096z M132.402,233.817h10.284l5.37,9.296
	l5.241-9.296h9.989l-10.553,15.65l10.964,16.415h-10.463l-5.532-9.653l-5.58,9.653h-10.202l10.964-16.258L132.402,233.817z
	 M195.008,291.5h59.088c11.266,0,20.404-9.133,20.404-20.404v-59.088h-79.492V291.5z M218.173,239.087h31.914v7.753h-31.914V239.087
	z M218.173,252.849h31.914v7.753h-31.914V252.849z"/>
<path fill="#FFFFFF" d="M194.992,116.5h-59.087c-11.265,0-20.404,9.139-20.404,20.404v59.087h79.492V116.5z M173.995,160.562
	h-13.771v13.837h-8.832v-13.837h-13.765v-8.76h13.765v-13.765h8.832v13.765h13.771V160.562z M282.5,136.904
	c0-11.265-9.139-20.404-20.404-20.404h-59.088v79.492H282.5V136.904z M258.896,161.192h-33.539v-9.948h33.539V161.192z
	 M115.5,263.096c0,11.266,9.139,20.404,20.404,20.404h59.087v-79.492H115.5V263.096z M140.402,225.817h10.284l5.37,9.296
	l5.241-9.296h9.989l-10.553,15.65l10.964,16.415h-10.463l-5.532-9.653l-5.58,9.653h-10.202l10.964-16.258L140.402,225.817z
	 M203.008,283.5h59.088c11.266,0,20.404-9.133,20.404-20.404v-59.088h-79.492V283.5z M226.173,231.087h31.914v7.753h-31.914V231.087
	z M226.173,244.849h31.914v7.753h-31.914V244.849z"/>
</svg>
